<mxfile host="app.diagrams.net" agent="Mozilla/5.0 (Windows NT 10.0; Win64; x64; rv:128.0) Gecko/20100101 Firefox/128.0" version="24.7.16">
  <diagram name="Page-1" id="_wBxhuFm0OqkK8-GqjhP">
    <mxGraphModel dx="1389" dy="750" grid="1" gridSize="10" guides="1" tooltips="1" connect="1" arrows="1" fold="1" page="1" pageScale="1" pageWidth="850" pageHeight="1100" math="0" shadow="0">
      <root>
        <mxCell id="0" />
        <mxCell id="1" parent="0" />
        <mxCell id="LEJShD_mL4plFmAnn_K--1" style="edgeStyle=orthogonalEdgeStyle;rounded=0;orthogonalLoop=1;jettySize=auto;html=1;exitX=0;exitY=0;exitDx=80;exitDy=54;exitPerimeter=0;" edge="1" parent="1" source="LEJShD_mL4plFmAnn_K--2" target="LEJShD_mL4plFmAnn_K--7">
          <mxGeometry relative="1" as="geometry" />
        </mxCell>
        <mxCell id="LEJShD_mL4plFmAnn_K--2" value="" style="shape=note;whiteSpace=wrap;html=1;backgroundOutline=1;darkOpacity=0.05;size=8;" vertex="1" parent="1">
          <mxGeometry x="40" y="250" width="80" height="100" as="geometry" />
        </mxCell>
        <mxCell id="LEJShD_mL4plFmAnn_K--3" value="" style="shape=note;whiteSpace=wrap;html=1;backgroundOutline=1;darkOpacity=0.05;size=13;" vertex="1" parent="1">
          <mxGeometry x="30" y="260" width="80" height="100" as="geometry" />
        </mxCell>
        <mxCell id="LEJShD_mL4plFmAnn_K--4" value="YAML" style="shape=note;whiteSpace=wrap;html=1;backgroundOutline=1;darkOpacity=0.05;size=22;" vertex="1" parent="1">
          <mxGeometry x="20" y="270" width="80" height="100" as="geometry" />
        </mxCell>
        <mxCell id="LEJShD_mL4plFmAnn_K--5" value="SoC Description Input" style="text;html=1;align=center;verticalAlign=middle;whiteSpace=wrap;rounded=0;" vertex="1" parent="1">
          <mxGeometry x="10" y="370" width="100" height="30" as="geometry" />
        </mxCell>
        <mxCell id="LEJShD_mL4plFmAnn_K--6" style="edgeStyle=orthogonalEdgeStyle;rounded=0;orthogonalLoop=1;jettySize=auto;html=1;exitX=1;exitY=0.5;exitDx=0;exitDy=0;exitPerimeter=0;entryX=0.5;entryY=0;entryDx=0;entryDy=0;" edge="1" parent="1" source="LEJShD_mL4plFmAnn_K--7" target="LEJShD_mL4plFmAnn_K--8">
          <mxGeometry relative="1" as="geometry" />
        </mxCell>
        <mxCell id="LEJShD_mL4plFmAnn_K--7" value="Python YAML Parser" style="verticalLabelPosition=bottom;html=1;verticalAlign=top;align=center;strokeColor=none;fillColor=#00BEF2;shape=mxgraph.azure.worker_roles;" vertex="1" parent="1">
          <mxGeometry x="180" y="310" width="97.78" height="80" as="geometry" />
        </mxCell>
        <mxCell id="LEJShD_mL4plFmAnn_K--8" value="SoC Generator" style="rounded=1;whiteSpace=wrap;html=1;verticalAlign=top;fillColor=#f5f5f5;fontColor=#333333;strokeColor=#666666;fontStyle=1" vertex="1" parent="1">
          <mxGeometry x="335" y="200" width="295" height="230" as="geometry" />
        </mxCell>
        <mxCell id="LEJShD_mL4plFmAnn_K--9" value="ICGLUE" style="rounded=1;whiteSpace=wrap;html=1;" vertex="1" parent="1">
          <mxGeometry x="377.5" y="230" width="210" height="30" as="geometry" />
        </mxCell>
        <mxCell id="LEJShD_mL4plFmAnn_K--10" value="ICPEAKRDL&lt;span style=&quot;color: rgba(0, 0, 0, 0); font-family: monospace; font-size: 0px; text-align: start; text-wrap: nowrap;&quot;&gt;%3CmxGraphModel%3E%3Croot%3E%3CmxCell%20id%3D%220%22%2F%3E%3CmxCell%20id%3D%221%22%20parent%3D%220%22%2F%3E%3CmxCell%20id%3D%222%22%20value%3D%22ICGLUE%22%20style%3D%22rounded%3D1%3BwhiteSpace%3Dwrap%3Bhtml%3D1%3B%22%20vertex%3D%221%22%20parent%3D%221%22%3E%3CmxGeometry%20x%3D%22522.5%22%20y%3D%22290%22%20width%3D%22210%22%20height%3D%2230%22%20as%3D%22geometry%22%2F%3E%3C%2FmxCell%3E%3C%2Froot%3E%3C%2FmxGraphModel%3E&lt;/span&gt;" style="rounded=1;whiteSpace=wrap;html=1;" vertex="1" parent="1">
          <mxGeometry x="377.5" y="270" width="210" height="30" as="geometry" />
        </mxCell>
        <mxCell id="LEJShD_mL4plFmAnn_K--11" value="ICUVMGEN" style="rounded=1;whiteSpace=wrap;html=1;" vertex="1" parent="1">
          <mxGeometry x="377.5" y="310" width="210" height="30" as="geometry" />
        </mxCell>
        <mxCell id="LEJShD_mL4plFmAnn_K--12" value="ICGPIOGEN" style="rounded=1;whiteSpace=wrap;html=1;" vertex="1" parent="1">
          <mxGeometry x="377.5" y="350" width="210" height="30" as="geometry" />
        </mxCell>
        <mxCell id="LEJShD_mL4plFmAnn_K--13" value="ARISTOPHANES" style="rounded=1;whiteSpace=wrap;html=1;" vertex="1" parent="1">
          <mxGeometry x="377.5" y="390" width="210" height="30" as="geometry" />
        </mxCell>
        <mxCell id="LEJShD_mL4plFmAnn_K--14" style="edgeStyle=orthogonalEdgeStyle;rounded=0;orthogonalLoop=1;jettySize=auto;html=1;exitX=1;exitY=0.5;exitDx=0;exitDy=0;entryX=0.75;entryY=0;entryDx=0;entryDy=0;" edge="1" parent="1" source="LEJShD_mL4plFmAnn_K--15" target="LEJShD_mL4plFmAnn_K--8">
          <mxGeometry relative="1" as="geometry">
            <mxPoint x="265" y="140" as="sourcePoint" />
            <mxPoint x="556.25" y="120" as="targetPoint" />
            <Array as="points">
              <mxPoint x="285" y="220" />
              <mxPoint x="285" y="140" />
              <mxPoint x="556" y="140" />
            </Array>
          </mxGeometry>
        </mxCell>
        <mxCell id="LEJShD_mL4plFmAnn_K--15" value="IP Store" style="shape=datastore;whiteSpace=wrap;html=1;" vertex="1" parent="1">
          <mxGeometry x="205" y="190" width="60" height="60" as="geometry" />
        </mxCell>
      </root>
    </mxGraphModel>
  </diagram>
</mxfile>
